<svg width="50" height="50" viewBox="0 0 50 50" fill="none" xmlns="http://www.w3.org/2000/svg">
<path d="M49.75 5.75V44.25C49.75 47.2876 47.2876 49.75 44.25 49.75H33.9375C33.1781 49.75 32.5625 49.1344 32.5625 48.375V31.875H38.9975C39.651 31.8751 40.2143 31.4153 40.345 30.775L41.335 25.825C41.3759 25.625 41.3258 25.4173 41.1983 25.2579C41.0708 25.0985 40.8791 25.004 40.675 25H32.5625V16.0625C32.5625 15.6828 32.8703 15.375 33.25 15.375H40.125C40.8844 15.375 41.5 14.7594 41.5 14V9.875C41.5 9.11561 40.8844 8.5 40.125 8.5H33.25C28.6937 8.5 25 12.1937 25 16.75V25H21.6175C20.8581 25 20.2425 25.6156 20.2425 26.375V30.5C20.2425 31.2594 20.8581 31.875 21.6175 31.875H25V48.375C25 49.1344 24.3844 49.75 23.625 49.75H5.75C2.71243 49.75 0.25 47.2876 0.25 44.25V5.75C0.25 2.71243 2.71243 0.25 5.75 0.25H44.25C47.2876 0.25 49.75 2.71243 49.75 5.75Z" fill="white"/>
</svg>
