<svg width="800" height="800" viewBox="0 0 800 800" fill="none" xmlns="http://www.w3.org/2000/svg">
<path d="M546.816 93.7607L532.939 173.046" stroke="#4A90E2" stroke-width="2"/>
<path d="M345.296 64.796L399.875 87.875" stroke="#4A90E2" stroke-width="2"/>
<path d="M532.664 172.908L400.375 87.875" stroke="#4A90E2" stroke-width="2"/>
<path d="M546.867 94.0107L400 87.688" stroke="#4A90E2" stroke-width="2"/>
<path d="M532.664 173.305L473.15 318.678" stroke="#4A90E2" stroke-width="2"/>
<path d="M400.5 86.5L349.315 193.234L532.69 173.607" stroke="#4A90E2" stroke-width="2"/>
<path d="M302.649 148.489L403.5 180.5L658.518 197.124" stroke="#4A90E2" stroke-width="2"/>
<path d="M163.416 168.929L225.728 132.847" stroke="#4A90E2" stroke-width="2"/>
<path d="M343.915 64.8324L225.612 133.122" stroke="#4A90E2" stroke-width="2"/>
<path d="M401 88L225.728 132.347" stroke="#4A90E2" stroke-width="2"/>
<path d="M350.376 193.828L225.728 132.847" stroke="#4A90E2" stroke-width="2"/>
<path d="M547.316 93.9565L680.3 235.363" stroke="#4A90E2" stroke-width="2"/>
<path d="M532.637 173.61L680.3 236.863" stroke="#4A90E2" stroke-width="2"/>
<path d="M403.5 179.5L621.537 316.126" stroke="#4A90E2" stroke-width="2"/>
<path d="M681.096 235.727L621.475 314.126" stroke="#4A90E2" stroke-width="2"/>
<path d="M532.914 172.607L622.413 315.876" stroke="#4A90E2" stroke-width="2"/>
<path d="M349.262 195.257L473.279 319.127" stroke="#4A90E2" stroke-width="2"/>
<path d="M621.224 315.497L474.778 319.127" stroke="#4A90E2" stroke-width="2"/>
<path d="M403.5 181L313.303 344.537" stroke="#4A90E2" stroke-width="2"/>
<path d="M349.686 193.609L313.334 344.631" stroke="#4A90E2" stroke-width="2"/>
<path d="M474.427 318.23L313.334 344.568" stroke="#4A90E2" stroke-width="2"/>
<path d="M188.913 310.054L403.25 337.5" stroke="#4A90E2" stroke-width="2"/>
<path d="M625.283 315.497L403.5 336.5" stroke="#4A90E2" stroke-width="2"/>
<path d="M314.433 344.219L186.725 286.9" stroke="#4A90E2" stroke-width="2"/>
<path d="M226.476 133.797L186.225 287.9" stroke="#4A90E2" stroke-width="2"/>
<path d="M347.968 193.359L185.225 287.4" stroke="#4A90E2" stroke-width="2"/>
<path d="M183.946 287.223L106.228 256.587" stroke="#4A90E2" stroke-width="2"/>
<path d="M228.699 132.058L106.228 255.587" stroke="#4A90E2" stroke-width="2"/>
<path d="M403.5 180L107.728 256.087" stroke="#4A90E2" stroke-width="2"/>
<path d="M403.5 337L704.753 432.885" stroke="#4A90E2" stroke-width="2"/>
<path d="M681 235.498L705.253 432.385" stroke="#4A90E2" stroke-width="2"/>
<path d="M621.276 313.953L705.252 430.885" stroke="#4A90E2" stroke-width="2"/>
<path d="M705.145 431.834L735.992 370.078" stroke="#4A90E2" stroke-width="2"/>
<path d="M707.228 549.88L706.728 549.38L616.446 612.863L703.578 553.482L705.728 549.88" stroke="#4A90E2" stroke-width="2"/>
<path d="M397.5 530L707.884 550.758L705.037 430.589" stroke="#4A90E2" stroke-width="2"/>
<path d="M479.036 613.281L573.727 474.665L475.522 318.178" stroke="#4A90E2" stroke-width="2"/>
<path d="M620.776 314.946L573.228 474.165" stroke="#4A90E2" stroke-width="2"/>
<path d="M704.787 432.432L573.228 474.165" stroke="#4A90E2" stroke-width="2"/>
<path d="M403 337L395.063 488L313.036 343.373" stroke="#4A90E2" stroke-width="2"/>
<path d="M474.073 317.332L393.062 488L572.381 472.716" stroke="#4A90E2" stroke-width="2"/>
<path d="M480.83 613.23L393.062 488" stroke="#4A90E2" stroke-width="2"/>
<path d="M395.258 488L216.614 472.744L313.415 344.197" stroke="#4A90E2" stroke-width="2"/>
<path d="M186.326 286.99L216.614 472.744" stroke="#4A90E2" stroke-width="2"/>
<path d="M103.634 256.599L85.7334 429.223" stroke="#4A90E2" stroke-width="2"/>
<path d="M186.649 286.677L85.2334 429.723" stroke="#4A90E2" stroke-width="2"/>
<path d="M403.5 335L85.2334 428.723L217.579 472.507" stroke="#4A90E2" stroke-width="2"/>
<path d="M84.8166 432.153L70.0303 366.541" stroke="#4A90E2" stroke-width="2"/>
<path d="M616.842 613.74L480.2 612.77" stroke="#4A90E2" stroke-width="2"/>
<path d="M572.766 472.173L616.842 612.74" stroke="#4A90E2" stroke-width="2"/>
<path d="M704.449 430.877L617.842 613.74" stroke="#4A90E2" stroke-width="2"/>
<path d="M584.235 686.372L616.842 614.24" stroke="#4A90E2" stroke-width="2"/>
<path d="M399 532L137.648 500.451" stroke="#4A90E2" stroke-width="2"/>
<path d="M511.77 471.832L399.5 531.5" stroke="#4A90E2" stroke-width="2"/>
<path d="M480.484 613.832L399 532" stroke="#4A90E2" stroke-width="2"/>
<path d="M86.7246 429.951L167.238 587.714" stroke="#4A90E2" stroke-width="2"/>
<path d="M401 531L166.841 588.387" stroke="#4A90E2" stroke-width="2"/>
<path d="M217.587 471.438L166.841 588.887" stroke="#4A90E2" stroke-width="2"/>
<path d="M108.633 571.235L165.041 587.072" stroke="#4A90E2" stroke-width="2"/>
<path d="M85.2554 429.317L107.571 570.276" stroke="#4A90E2" stroke-width="2"/>
<path d="M450.314 718.141L480.882 613.281" stroke="#4A90E2" stroke-width="2"/>
<path d="M616.725 613.613L450.814 717.641" stroke="#4A90E2" stroke-width="2"/>
<path d="M584.401 686.505L449.978 717.5" stroke="#4A90E2" stroke-width="2"/>
<path d="M167.738 588.938L253.396 705.168" stroke="#4A90E2" stroke-width="2"/>
<path d="M449.173 716.692L254.146 705.918" stroke="#4A90E2" stroke-width="2"/>
<path d="M449.173 716.692L254.146 705.918Z" fill="#4A90E2"/>
<path d="M480.433 612.627L315.035 631.116L169.378 587.887" stroke="#4A90E2" stroke-width="2"/>
<path d="M217.683 471.983L316.282 632.67" stroke="#4A90E2" stroke-width="2"/>
<path d="M451.738 717.585L314.283 631.692" stroke="#4A90E2" stroke-width="2"/>
<path d="M315.033 632.942L254.072 706.261" stroke="#4A90E2" stroke-width="2"/>
<path d="M394.598 486.138L315.033 633.067" stroke="#4A90E2" stroke-width="2"/>
<path d="M403.5 329C407.642 329 411 332.358 411 336.5C411 340.642 407.642 344 403.5 344C399.358 344 396 340.642 396 336.5C396 332.358 399.358 329 403.5 329Z" fill="#4A90E2"/>
<path d="M217.807 463.612C221.949 463.612 225.307 466.97 225.307 471.112C225.307 475.254 221.949 478.612 217.807 478.612C213.665 478.612 210.307 475.254 210.307 471.112C210.307 466.97 213.665 463.612 217.807 463.612Z" fill="#4A90E2"/>
<path d="M400.5 80.5C404.642 80.5 408 83.858 408 88C408 92.142 404.642 95.5 400.5 95.5C396.358 95.5 393 92.142 393 88C393 83.858 396.358 80.5 400.5 80.5Z" fill="#4A90E2"/>
<path d="M315.123 624.801C319.265 624.801 322.623 628.159 322.623 632.301C322.623 636.443 319.265 639.801 315.123 639.801C310.981 639.801 307.623 636.443 307.623 632.301C307.623 628.159 310.981 624.801 315.123 624.801Z" fill="#4A90E2"/>
<path d="M479.875 603.979C484.017 603.979 487.375 607.337 487.375 611.479C487.375 615.621 484.017 618.979 479.875 618.979C475.733 618.979 472.375 615.621 472.375 611.479C472.375 607.337 475.733 603.979 479.875 603.979Z" fill="#4A90E2"/>
<path d="M398.575 523.925C402.717 523.925 406.075 527.283 406.075 531.425C406.075 535.567 402.717 538.925 398.575 538.925C394.433 538.925 391.075 535.567 391.075 531.425C391.075 527.283 394.433 523.925 398.575 523.925Z" fill="#4A90E2"/>
<path d="M167.317 579.777C171.459 579.777 174.817 583.135 174.817 587.277C174.817 591.419 171.459 594.777 167.317 594.777C163.175 594.777 159.817 591.419 159.817 587.277C159.817 583.135 163.175 579.777 167.317 579.777Z" fill="#4A90E2"/>
<path d="M449.304 709.268C453.446 709.268 456.804 712.626 456.804 716.768C456.804 720.91 453.446 724.268 449.304 724.268C445.162 724.268 441.804 720.91 441.804 716.768C441.804 712.626 445.162 709.268 449.304 709.268Z" fill="#4A90E2"/>
<path d="M572.389 464.799C576.531 464.799 579.889 468.157 579.889 472.299C579.889 476.441 576.531 479.799 572.389 479.799C568.247 479.799 564.889 476.441 564.889 472.299C564.889 468.157 568.247 464.799 572.389 464.799Z" fill="#4A90E2"/>
<path d="M620.831 306.367C624.973 306.367 628.331 309.725 628.331 313.867C628.331 318.009 624.973 321.367 620.831 321.367C616.689 321.367 613.331 318.009 613.331 313.867C613.331 309.725 616.689 306.367 620.831 306.367Z" fill="#4A90E2"/>
<path d="M349.898 185.118C354.04 185.118 357.398 188.476 357.398 192.618C357.398 196.76 354.04 200.118 349.898 200.118C345.756 200.118 342.398 196.76 342.398 192.618C342.398 188.476 345.756 185.118 349.898 185.118Z" fill="#4A90E2"/>
<path d="M532.169 165.215C536.311 165.215 539.669 168.573 539.669 172.715C539.669 176.857 536.311 180.215 532.169 180.215C528.027 180.215 524.669 176.857 524.669 172.715C524.669 168.573 528.027 165.215 532.169 165.215Z" fill="#4A90E2"/>
<path d="M225.976 124.082C230.118 124.082 233.476 127.44 233.476 131.582C233.476 135.724 230.118 139.082 225.976 139.082C221.834 139.082 218.476 135.724 218.476 131.582C218.476 127.44 221.834 124.082 225.976 124.082Z" fill="#4A90E2"/>
<path d="M473.783 310.366C477.925 310.366 481.283 313.724 481.283 317.866C481.283 322.008 477.925 325.366 473.783 325.366C469.641 325.366 466.283 322.008 466.283 317.866C466.283 313.724 469.641 310.366 473.783 310.366Z" fill="#4A90E2"/>
<path d="M403.575 172.425C407.717 172.425 411.075 175.783 411.075 179.925C411.075 184.067 407.717 187.425 403.575 187.425C399.433 187.425 396.075 184.067 396.075 179.925C396.075 175.783 399.433 172.425 403.575 172.425Z" fill="#4A90E2"/>
<path d="M185.404 278.428C189.546 278.428 192.904 281.786 192.904 285.928C192.904 290.07 189.546 293.428 185.404 293.428C181.262 293.428 177.904 290.07 177.904 285.928C177.904 281.786 181.262 278.428 185.404 278.428Z" fill="#4A90E2"/>
<path d="M313.389 336.591C317.531 336.591 320.889 339.949 320.889 344.091C320.889 348.233 317.531 351.591 313.389 351.591C309.247 351.591 305.889 348.233 305.889 344.091C305.889 339.949 309.247 336.591 313.389 336.591Z" fill="#4A90E2"/>
<path d="M86.4941 421.324C90.6361 421.324 93.9941 424.682 93.9941 428.824C93.9941 432.966 90.6361 436.324 86.4941 436.324C82.3521 436.324 78.9941 432.966 78.9941 428.824C78.9941 424.682 82.3521 421.324 86.4941 421.324Z" fill="#4A90E2"/>
<path d="M394.508 479.412C398.65 479.412 402.008 482.77 402.008 486.912C402.008 491.054 398.65 494.412 394.508 494.412C390.366 494.412 387.008 491.054 387.008 486.912C387.008 482.77 390.366 479.412 394.508 479.412Z" fill="#4A90E2"/>
<g opacity="0.269393">
<path d="M394.548 469.385C385.162 469.385 377.552 477.187 377.552 486.811C377.552 496.434 385.162 504.236 394.548 504.236C403.935 504.236 411.544 496.434 411.544 486.811C411.544 477.187 403.935 469.385 394.548 469.385Z" fill="#4A90E2"/>
<path d="M394.548 469.385C385.162 469.385 377.552 477.187 377.552 486.811C377.552 496.434 385.162 504.236 394.548 504.236C403.935 504.236 411.544 496.434 411.544 486.811C411.544 477.187 403.935 469.385 394.548 469.385Z" stroke="#4A90E2" stroke-width="1.82254"/>
</g>
<path d="M704.451 422.787C708.593 422.787 711.951 426.145 711.951 430.287C711.951 434.429 708.593 437.787 704.451 437.787C700.309 437.787 696.951 434.429 696.951 430.287C696.951 426.145 700.309 422.787 704.451 422.787Z" fill="#4A90E2"/>
<path d="M616.125 604.869C620.267 604.869 623.625 608.227 623.625 612.369C623.625 616.511 620.267 619.869 616.125 619.869C611.983 619.869 608.625 616.511 608.625 612.369C608.625 608.227 611.983 604.869 616.125 604.869Z" fill="#4A90E2"/>
<path d="M302.951 147.989L345.597 64.3217" stroke="#4A90E2" stroke-width="2"/>
<path d="M163.303 169.773L302.848 148.938" stroke="#4A90E2" stroke-width="2"/>
<path d="M303.451 148.489L502.489 128.986" stroke="#4A90E2" stroke-width="2"/>
<path d="M502.489 129.486L345.597 64.3217" stroke="#4A90E2" stroke-width="2"/>
<path d="M546.022 93.908L346.597 65.3217" stroke="#4A90E2" stroke-width="2"/>
<path d="M345.097 57.3217C349.239 57.3217 352.597 60.6797 352.597 64.8217C352.597 68.9637 349.239 72.3217 345.097 72.3217C340.955 72.3217 337.597 68.9637 337.597 64.8217C337.597 60.6797 340.955 57.3217 345.097 57.3217Z" fill="#4A90E2"/>
<path d="M302.951 141.489C307.093 141.489 310.451 144.847 310.451 148.989C310.451 153.131 307.093 156.489 302.951 156.489C298.809 156.489 295.451 153.131 295.451 148.989C295.451 144.847 298.809 141.489 302.951 141.489Z" fill="#4A90E2"/>
<path d="M651.974 533.261L584.794 686.973" stroke="#4A90E2" stroke-width="2"/>
<path d="M735.881 369.535L652.974 532.761" stroke="#4A90E2" stroke-width="2"/>
<path d="M652.974 532.761L705.808 549.151" stroke="#4A90E2" stroke-width="2"/>
<path d="M583.794 686.473L705.808 549.151" stroke="#4A90E2" stroke-width="2"/>
<path d="M734.881 370.535L705.808 549.151" stroke="#4A90E2" stroke-width="2"/>
<path d="M705.308 542.151C709.45 542.151 712.808 545.509 712.808 549.651C712.808 553.793 709.45 557.151 705.308 557.151C701.166 557.151 697.808 553.793 697.808 549.651C697.808 545.509 701.166 542.151 705.308 542.151Z" fill="#4A90E2"/>
<path d="M734.631 362.535C738.773 362.535 742.131 365.893 742.131 370.035C742.131 374.177 738.773 377.535 734.631 377.535C730.489 377.535 727.131 374.177 727.131 370.035C727.131 365.893 730.489 362.535 734.631 362.535Z" fill="#4A90E2"/>
<path d="M584.294 678.973C588.436 678.973 591.794 682.331 591.794 686.473C591.794 690.615 588.436 693.973 584.294 693.973C580.152 693.973 576.794 690.615 576.794 686.473C576.794 682.331 580.152 678.973 584.294 678.973Z" fill="#4A90E2"/>
<path d="M545.618 94.7864L658.32 195.682" stroke="#4A90E2" stroke-width="2"/>
<path d="M735.154 370.828L680.79 235.814" stroke="#4A90E2" stroke-width="2"/>
<path d="M658.57 194.682L681.368 235.754" stroke="#4A90E2" stroke-width="2"/>
<path d="M545.368 94.7864L502.386 128.486" stroke="#4A90E2" stroke-width="2"/>
<path d="M681.346 228.176C685.488 228.176 688.846 231.534 688.846 235.676C688.846 239.818 685.488 243.176 681.346 243.176C677.204 243.176 673.846 239.818 673.846 235.676C673.846 231.534 677.204 228.176 681.346 228.176Z" fill="#4A90E2"/>
<path d="M546.618 86.2864C550.76 86.2864 554.118 89.6444 554.118 93.7864C554.118 97.9284 550.76 101.286 546.618 101.286C542.476 101.286 539.118 97.9284 539.118 93.7864C539.118 89.6444 542.476 86.2864 546.618 86.2864Z" fill="#4A90E2"/>
<path d="M102.695 258.068L162.508 168.222" stroke="#4A90E2" stroke-width="2"/>
<path d="M161.008 169.472L184.244 309.554" stroke="#4A90E2" stroke-width="2"/>
<path d="M184.307 310.804L139.035 500.9" stroke="#4A90E2" stroke-width="2"/>
<path d="M138.097 500.15L106.876 572.003" stroke="#4A90E2" stroke-width="2"/>
<path d="M344.988 64.1744L161.446 170.222" stroke="#4A90E2" stroke-width="2"/>
<path d="M107.688 571.003L70.7163 365.324" stroke="#4A90E2" stroke-width="2"/>
<path d="M138.597 500.9L70.7163 365.324" stroke="#4A90E2" stroke-width="2"/>
<path d="M306.092 503.77L137.597 500.9" stroke="#4A90E2" stroke-width="2"/>
<path d="M249.035 665.424L138.222 501.275" stroke="#4A90E2" stroke-width="2"/>
<path d="M248.41 663.049L108.563 571.878" stroke="#4A90E2" stroke-width="2"/>
<path d="M185.807 310.054L70.7163 365.325" stroke="#4A90E2" stroke-width="2"/>
<path d="M161.258 169.722L70.7163 365.325" stroke="#4A90E2" stroke-width="2"/>
<path d="M102.695 256.568L71.7163 366.325" stroke="#4A90E2" stroke-width="2"/>
<path d="M70.2163 358.324C74.3583 358.324 77.7163 361.682 77.7163 365.824C77.7163 369.966 74.3583 373.324 70.2163 373.324C66.0743 373.324 62.7163 369.966 62.7163 365.824C62.7163 361.682 66.0743 358.324 70.2163 358.324Z" fill="#4A90E2"/>
<path d="M138.097 492.9C142.239 492.9 145.597 496.258 145.597 500.4C145.597 504.542 142.239 507.9 138.097 507.9C133.955 507.9 130.597 504.542 130.597 500.4C130.597 496.258 133.955 492.9 138.097 492.9Z" fill="#4A90E2"/>
<path d="M107.938 563.503C112.08 563.503 115.438 566.861 115.438 571.003C115.438 575.145 112.08 578.503 107.938 578.503C103.796 578.503 100.438 575.145 100.438 571.003C100.438 566.861 103.796 563.503 107.938 563.503Z" fill="#4A90E2"/>
<path d="M102.695 249.818C106.837 249.818 110.195 253.176 110.195 257.318C110.195 261.46 106.837 264.818 102.695 264.818C98.5528 264.818 95.1948 261.46 95.1948 257.318C95.1948 253.176 98.5528 249.818 102.695 249.818Z" fill="#4A90E2"/>
<path d="M162.008 161.722C166.15 161.722 169.508 165.08 169.508 169.222C169.508 173.364 166.15 176.722 162.008 176.722C157.866 176.722 154.508 173.364 154.508 169.222C154.508 165.08 157.866 161.722 162.008 161.722Z" fill="#4A90E2"/>
<path d="M659.467 197.676L625.386 314.549" stroke="#4A90E2" stroke-width="2"/>
<path d="M735.554 370.208L625.386 314.548" stroke="#4A90E2" stroke-width="2"/>
<path d="M513.289 471.877L625.386 314.548" stroke="#4A90E2" stroke-width="2"/>
<path d="M653.794 532.088L625.386 314.548" stroke="#4A90E2" stroke-width="2"/>
<path d="M659.217 196.176L736.554 371.208" stroke="#4A90E2" stroke-width="2"/>
<path d="M659.217 196.175L503.783 129.781" stroke="#4A90E2" stroke-width="2"/>
<path d="M502.783 128.781L625.386 314.549" stroke="#4A90E2" stroke-width="2"/>
<path d="M624.886 307.548C629.028 307.548 632.386 310.906 632.386 315.048C632.386 319.19 629.028 322.548 624.886 322.548C620.744 322.548 617.386 319.19 617.386 315.048C617.386 310.906 620.744 307.548 624.886 307.548Z" fill="#4A90E2"/>
<path d="M658.967 188.676C663.109 188.676 666.467 192.034 666.467 196.176C666.467 200.318 663.109 203.676 658.967 203.676C654.825 203.676 651.467 200.318 651.467 196.176C651.467 192.034 654.825 188.676 658.967 188.676Z" fill="#4A90E2"/>
<path d="M302.797 148.835L406.781 288.308" stroke="#4A90E2" stroke-width="2"/>
<path d="M186.567 310.003L406.781 288.308" stroke="#4A90E2" stroke-width="2"/>
<path d="M305.399 502.566L185.361 309.77" stroke="#4A90E2" stroke-width="2"/>
<path d="M185.861 308.872L303.02 148.429" stroke="#4A90E2" stroke-width="2"/>
<path d="M305.592 502.873L406.781 288.308" stroke="#4A90E2" stroke-width="2"/>
<path d="M514.013 471.832L406.781 288.308" stroke="#4A90E2" stroke-width="2"/>
<path d="M625.784 315.549L406.781 287.308" stroke="#4A90E2" stroke-width="2"/>
<path d="M502.386 129.384L406.781 288.308" stroke="#4A90E2" stroke-width="2"/>
<path d="M406.281 281.308C410.423 281.308 413.781 284.666 413.781 288.808C413.781 292.95 410.423 296.308 406.281 296.308C402.139 296.308 398.781 292.95 398.781 288.808C398.781 284.666 402.139 281.308 406.281 281.308Z" fill="#4A90E2"/>
<path d="M187.359 303.121C191.501 303.121 194.859 306.479 194.859 310.621C194.859 314.763 191.501 318.121 187.359 318.121C183.217 318.121 179.859 314.763 179.859 310.621C179.859 306.479 183.217 303.121 187.359 303.121Z" fill="#4A90E2"/>
<path d="M502.358 121.69C506.5 121.69 509.858 125.048 509.858 129.19C509.858 133.332 506.5 136.69 502.358 136.69C498.216 136.69 494.858 133.332 494.858 129.19C494.858 125.048 498.216 121.69 502.358 121.69Z" fill="#4A90E2"/>
<path d="M305.807 494.318C309.949 494.318 313.307 497.676 313.307 501.818C313.307 505.96 309.949 509.318 305.807 509.318C301.665 509.318 298.307 505.96 298.307 501.818C298.307 497.676 301.665 494.318 305.807 494.318Z" fill="#4A90E2"/>
<g opacity="0.649909">
<path d="M501.888 113.186C492.476 113.186 484.845 120.886 484.845 130.384C484.845 139.881 492.476 147.581 501.888 147.581C511.301 147.581 518.931 139.881 518.931 130.384C518.931 120.886 511.301 113.186 501.888 113.186Z" fill="#4A90E2"/>
<path d="M501.888 113.186C492.476 113.186 484.845 120.886 484.845 130.384C484.845 139.881 492.476 147.581 501.888 147.581C511.301 147.581 518.931 139.881 518.931 130.384C518.931 120.886 511.301 113.186 501.888 113.186Z" stroke="#4A90E2" stroke-width="3.08405"/>
</g>
<path d="M304.643 501.527L248.83 662.924" stroke="#4A90E2" stroke-width="2"/>
<path d="M513.314 471.428L653.621 531.959" stroke="#4A90E2" stroke-width="2"/>
<path d="M247.643 662.092L398.694 737.194" stroke="#4A90E2" stroke-width="2"/>
<path d="M399.25 735.5L462.666 649.795" stroke="#4A90E2" stroke-width="2"/>
<path d="M249.33 658.924L462.416 649.295" stroke="#4A90E2" stroke-width="2"/>
<path d="M304.143 500.402L462.416 649.295" stroke="#4A90E2" stroke-width="2"/>
<path d="M304.143 500.652L505.647 472.845" stroke="#4A90E2" stroke-width="2"/>
<path d="M582.699 686.672L462.416 648.795" stroke="#4A90E2" stroke-width="2"/>
<path d="M655.871 532.709L462.416 648.795" stroke="#4A90E2" stroke-width="2"/>
<path d="M513.814 472.178L461.916 649.295" stroke="#4A90E2" stroke-width="2"/>
<path d="M460.416 638.795C464.558 638.795 467.916 642.153 467.916 646.295C467.916 650.437 464.558 653.795 460.416 653.795C456.274 653.795 452.916 650.437 452.916 646.295C452.916 642.153 456.274 638.795 460.416 638.795Z" fill="#4A90E2"/>
<path d="M398 729C402.142 729 405.5 732.358 405.5 736.5C405.5 740.642 402.142 744 398 744C393.858 744 390.5 740.642 390.5 736.5C390.5 732.358 393.858 729 398 729Z" fill="#4A90E2"/>
<path d="M248.83 654.98C252.972 654.98 256.33 658.338 256.33 662.48C256.33 666.622 252.972 669.98 248.83 669.98C244.688 669.98 241.33 666.622 241.33 662.48C241.33 658.338 244.688 654.98 248.83 654.98Z" fill="#4A90E2"/>
<path d="M511.314 465.178C515.456 465.178 518.814 468.536 518.814 472.678C518.814 476.82 515.456 480.178 511.314 480.178C507.172 480.178 503.814 476.82 503.814 472.678C503.814 468.536 507.172 465.178 511.314 465.178Z" fill="#4A90E2"/>
<path d="M652.371 526.209C656.513 526.209 659.871 529.567 659.871 533.709C659.871 537.851 656.513 541.209 652.371 541.209C648.229 541.209 644.871 537.851 644.871 533.709C644.871 529.567 648.229 526.209 652.371 526.209Z" fill="#4A90E2"/>
<path d="M585.45 687.388L399.31 737.899" stroke="#4A90E2" stroke-width="2"/>
<path d="M252.544 703.576L108.432 572.684" stroke="#4A90E2" stroke-width="2"/>
<path d="M248.587 663.642L254.133 704.078" stroke="#4A90E2" stroke-width="2"/>
<path d="M254.226 705.044L399.327 738.202" stroke="#4A90E2" stroke-width="2"/>
<path d="M254.796 698.015C258.938 698.015 262.296 701.373 262.296 705.515C262.296 709.657 258.938 713.015 254.796 713.015C250.654 713.015 247.296 709.657 247.296 705.515C247.296 701.373 250.654 698.015 254.796 698.015Z" fill="#4A90E2"/>
</svg>
