<svg width="50" height="50" viewBox="0 0 50 50" fill="none" xmlns="http://www.w3.org/2000/svg">
<path d="M36 0.25H14C6.40608 0.25 0.25 6.40608 0.25 14V36C0.25 43.5939 6.40608 49.75 14 49.75H36C43.5939 49.75 49.75 43.5939 49.75 36V14C49.75 6.40608 43.5939 0.25 36 0.25ZM44.9375 36C44.9224 40.9298 40.9298 44.9224 36 44.9375H14C9.07022 44.9224 5.0776 40.9298 5.0625 36V14C5.0776 9.07022 9.07022 5.0776 14 5.0625H36C40.9298 5.0776 44.9224 9.07022 44.9375 14V36ZM40.8125 11.9375C40.8125 13.4563 39.5813 14.6875 38.0625 14.6875C36.5437 14.6875 35.3125 13.4563 35.3125 11.9375C35.3125 10.4187 36.5437 9.1875 38.0625 9.1875C39.5813 9.1875 40.8125 10.4187 40.8125 11.9375ZM25 12.625C18.1655 12.625 12.625 18.1655 12.625 25C12.625 31.8345 18.1655 37.375 25 37.375C31.8345 37.375 37.375 31.8345 37.375 25C37.3823 21.7157 36.0809 18.5638 33.7585 16.2415C31.4362 13.9191 28.2843 12.6177 25 12.625ZM25 32.5625C20.8233 32.5625 17.4375 29.1767 17.4375 25C17.4375 20.8233 20.8233 17.4375 25 17.4375C29.1767 17.4375 32.5625 20.8233 32.5625 25C32.5625 29.1767 29.1767 32.5625 25 32.5625Z" fill="white"/>
</svg>
