<svg width="50" height="50" viewBox="0 0 50 50" fill="none" xmlns="http://www.w3.org/2000/svg">
<path d="M44.25 0.25H5.75C2.71243 0.25 0.25 2.71243 0.25 5.75V44.25C0.25 47.2876 2.71243 49.75 5.75 49.75H44.25C47.2876 49.75 49.75 47.2876 49.75 44.25V5.75C49.75 2.71243 47.2876 0.25 44.25 0.25ZM15.375 40.125C15.375 40.8844 14.7594 41.5 14 41.5H9.875C9.11561 41.5 8.5 40.8844 8.5 40.125V20.875C8.5 20.1156 9.11561 19.5 9.875 19.5H14C14.7594 19.5 15.375 20.1156 15.375 20.875V40.125ZM11.9375 16.75C9.65933 16.75 7.8125 14.9032 7.8125 12.625C7.8125 10.3468 9.65933 8.5 11.9375 8.5C14.2157 8.5 16.0625 10.3468 16.0625 12.625C16.0625 14.9032 14.2157 16.75 11.9375 16.75ZM41.5 40.125C41.5 40.8844 40.8844 41.5 40.125 41.5H36C35.2406 41.5 34.625 40.8844 34.625 40.125V29.8125C34.625 27.5343 32.7782 25.6875 30.5 25.6875C28.2218 25.6875 26.375 27.5343 26.375 29.8125V40.125C26.375 40.8844 25.7594 41.5 25 41.5H20.875C20.1156 41.5 19.5 40.8844 19.5 40.125V20.875C19.5 20.1156 20.1156 19.5 20.875 19.5H25C25.7594 19.5 26.375 20.1156 26.375 20.875V22.525C28.0477 19.9796 30.9868 18.5629 34.02 18.84C38.3584 19.3749 41.5893 23.1046 41.5 27.475V40.125Z" fill="white"/>
</svg>
