<svg width="29" height="29" viewBox="0 0 29 29" fill="none" xmlns="http://www.w3.org/2000/svg">
<path d="M22.2083 28.3752C19.6588 28.373 17.1491 27.7429 14.9008 26.5406L14.2071 26.1552C9.41366 23.578 5.48386 19.6482 2.90667 14.8548L2.52125 14.1611C1.28765 11.9 0.635989 9.36756 0.625001 6.7919V5.75898C0.62435 4.93721 0.951773 4.14917 1.53458 3.56982L4.14 0.9644C4.39303 0.709405 4.7502 0.586499 5.10656 0.631799C5.46292 0.677099 5.77799 0.885459 5.95917 1.19565L9.42792 7.14648C9.77869 7.75219 9.67741 8.51819 9.18125 9.0119L6.2675 11.9256C6.02553 12.165 5.96913 12.5347 6.12875 12.8352L6.66833 13.8527C8.60627 17.4424 11.5543 20.3851 15.1475 22.3165L16.165 22.8715C16.4656 23.0311 16.8353 22.9747 17.0746 22.7327L19.9883 19.819C20.482 19.3228 21.248 19.2215 21.8538 19.5723L27.8046 23.0411C28.1148 23.2222 28.3231 23.5373 28.3684 23.8937C28.4137 24.25 28.2908 24.6072 28.0358 24.8602L25.4304 27.4657C24.8511 28.0485 24.063 28.3759 23.2413 28.3752H22.2083Z" fill="white"/>
</svg>
