<svg width="269" height="446" viewBox="0 0 269 446" fill="none" xmlns="http://www.w3.org/2000/svg">
<path d="M85.0649 340.308C85.0649 340.308 77.3665 364.902 78.8813 387.851C80.3961 410.8 90.3871 425.741 90.3871 425.741" stroke="#4A6BE2" stroke-width="40" stroke-miterlimit="10" stroke-linecap="round"/>
<path d="M65.9058 361.359C65.9058 361.359 61.3036 389.198 69.3031 413.908" stroke="#040726" stroke-width="2"/>
<path d="M56.7026 250.935C56.7026 250.935 38.6927 268.098 29.4308 288.514C20.1688 308.93 21.9479 326.778 21.9479 326.778" stroke="#4A6BE2" stroke-width="40" stroke-miterlimit="10" stroke-linecap="round"/>
<path d="M32.5842 256.69C32.5842 256.69 14.8114 278.134 9.13586 305.334M35.8565 329.279C35.8565 329.279 32.8875 343.028 20.4882 340.872C8.08889 338.716 8.17544 327.888 8.17544 327.888" stroke="#040726" stroke-width="2"/>
<path d="M63.4795 232.735C54.0182 231.602 45.4457 238.121 44.3486 247.283C43.2515 256.446 50.0426 264.806 59.5039 265.939C68.9651 267.073 77.5377 260.554 78.6348 251.391C79.7318 242.228 72.9407 233.869 63.4795 232.735Z" fill="#040726"/>
<path d="M63.4795 232.735C54.0182 231.602 45.4457 238.121 44.3486 247.283C43.2515 256.446 50.0426 264.806 59.5039 265.939C68.9651 267.073 77.5377 260.554 78.6348 251.391C79.7318 242.228 72.9407 233.869 63.4795 232.735Z" stroke="#4A6BE2" stroke-width="5" stroke-miterlimit="10"/>
<path d="M48.7883 278.596C46.0765 233.09 73.9977 225.064 108.906 222.983C143.813 220.901 172.49 225.552 175.202 271.058C177.913 316.563 151.813 355.14 116.905 357.222C81.9971 359.304 51.5 324.102 48.7883 278.596Z" fill="#4A6BE2"/>
<path d="M93.7362 269.49C90.719 260.192 88.6814 249.788 90.0538 240.574C79.9171 238.963 72.9304 235.231 72.6479 230.49C72.2271 223.43 86.8305 216.815 105.265 215.715C123.699 214.616 138.985 219.449 139.405 226.51C139.826 233.57 125.223 240.185 106.789 241.285C106.378 241.309 105.971 241.327 105.563 241.346C103.577 246.855 102.204 257.465 101.046 268.695C100.871 270.395 99.5719 271.764 97.8835 272.026C96.0671 272.308 94.3036 271.239 93.7362 269.49Z" fill="#040726"/>
<path d="M93.7362 269.49C90.719 260.192 88.6814 249.788 90.0538 240.574C79.9171 238.963 72.9304 235.231 72.6479 230.49C72.2271 223.43 86.8305 216.815 105.265 215.715C123.699 214.616 138.985 219.449 139.405 226.51C139.826 233.57 125.223 240.185 106.789 241.285C106.378 241.309 105.971 241.327 105.563 241.346C103.577 246.855 102.204 257.465 101.046 268.695C100.871 270.395 99.5719 271.764 97.8835 272.026C96.0671 272.308 94.3036 271.239 93.7362 269.49Z" stroke="#4A6BE2" stroke-width="5" stroke-miterlimit="10"/>
<path d="M60.2676 237.999C45.5274 247.788 32.7698 323.619 95.8788 354.069" stroke="#040726" stroke-width="2" stroke-miterlimit="10"/>
<path d="M142.549 39.3535C90.1695 28.9533 39.2013 63.0397 28.8057 115.422C18.4102 167.805 52.4976 218.78 104.877 229.18C157.256 239.58 208.224 205.494 218.62 153.111C229.015 100.729 194.928 49.7538 142.549 39.3535Z" fill="#4A6BE2"/>
<path d="M116.129 53.6935C73.4572 45.2206 32.077 72.2719 23.7835 114.062C15.49 155.853 43.4028 196.663 86.075 205.136C128.747 213.609 170.128 186.557 178.421 144.767C186.715 102.976 158.802 62.1663 116.129 53.6935Z" fill="#040726"/>
<path d="M116.129 53.6935C73.4572 45.2206 32.077 72.2719 23.7835 114.062C15.49 155.853 43.4028 196.663 86.075 205.136C128.747 213.609 170.128 186.557 178.421 144.767C186.715 102.976 158.802 62.1663 116.129 53.6935Z" stroke="#4A6BE2" stroke-width="5" stroke-miterlimit="10"/>
<path d="M103.305 61.6661C66.1389 54.2865 30.0981 77.8474 22.8747 114.246C15.6513 150.644 39.9624 186.188 77.1285 193.567C114.295 200.947 150.335 177.386 157.559 140.988C164.782 104.59 140.471 69.0457 103.305 61.6661Z" fill="#4A6BE2"/>
<path d="M104.873 229.18C152.095 238.556 198.106 211.844 214.369 168.131C216.158 163.321 217.587 158.306 218.619 153.11C229.022 100.69 194.963 49.7583 142.546 39.3507" stroke="#040726" stroke-width="2"/>
<path d="M139.617 137.061C143.404 117.982 138.656 100.963 140.769 101.382C142.882 101.802 151.057 119.501 147.27 138.581C143.484 157.66 129.17 170.895 127.056 170.475C124.943 170.056 135.831 156.141 139.617 137.061Z" fill="#040726"/>
<path d="M138.043 343.485C138.043 343.485 141.313 369.048 152.269 389.27C163.224 409.491 178.538 418.897 178.538 418.897" stroke="#4A6BE2" stroke-width="40" stroke-miterlimit="10" stroke-linecap="round"/>
<path d="M129.42 370.614C129.42 370.614 136.858 397.831 154.442 416.946" stroke="#040726" stroke-width="2" stroke-linecap="round"/>
<path d="M157.345 227.367C148.538 230.123 143.625 239.512 146.38 248.319C149.135 257.126 158.522 262.038 167.329 259.282C176.135 256.526 181.048 247.138 178.293 238.331C175.538 229.524 166.151 224.611 157.345 227.367Z" fill="#040726"/>
<path d="M157.345 227.367C148.538 230.123 143.625 239.512 146.38 248.319C149.135 257.126 158.522 262.038 167.329 259.282C176.135 256.526 181.048 247.138 178.293 238.331C175.538 229.524 166.151 224.611 157.345 227.367Z" stroke="#4A6BE2" stroke-width="5" stroke-miterlimit="10"/>
<path d="M166.031 244.092C166.031 244.092 189.213 260.054 204.337 280.774C219.461 301.494 222.57 321.018 222.57 321.018" stroke="#4A6BE2" stroke-width="40" stroke-miterlimit="10" stroke-linecap="round"/>
<path d="M191.369 246.654C191.369 246.654 219.49 266.322 231.618 300.209M236.508 322.105C236.508 322.105 237.11 333.648 222.619 335.213C212.05 336.355 208.753 323.075 208.753 323.075" stroke="#040726" stroke-width="2" stroke-miterlimit="10"/>
<path d="M152.691 252.528C152.691 252.528 183.275 268.09 200 299.959" stroke="#040726" stroke-width="3" stroke-miterlimit="10" stroke-linecap="round"/>
<path d="M218.814 111C203.977 108.055 188.192 124.6 183.558 147.955C178.923 171.31 187.193 192.631 202.029 195.577C216.865 198.523 232.65 181.978 237.285 158.623C241.92 135.268 233.65 113.946 218.814 111Z" fill="#040726"/>
<path d="M218.814 111C203.977 108.055 188.192 124.6 183.558 147.955C178.923 171.31 187.193 192.631 202.029 195.577C216.865 198.523 232.65 181.978 237.285 158.623C241.92 135.268 233.65 113.946 218.814 111Z" stroke="#4A6BE2" stroke-width="5" stroke-miterlimit="10"/>
<path d="M22.8696 149.288C15.0682 143.314 11.3159 129.36 14.2954 114.347C17.0043 100.697 24.5202 89.9846 32.9958 86.2417C34.5381 85.5606 24.4955 100.905 21.7223 117.379C19.0784 133.089 23.7542 149.965 22.8696 149.288ZM46.2007 69.4647C59.546 42.1817 90.1896 8.67919 158.672 24.4342C232.069 41.3192 237.298 99.2739 235.964 124.377C244.829 129.596 249.302 144.381 246.127 160.378C242.455 178.879 229.951 191.986 218.198 189.653C206.445 187.319 199.894 170.428 203.566 151.927C206.199 138.657 213.377 128.164 221.563 124.151C218.818 96.8871 204.37 34.3411 129.759 27.6561C85.2986 23.6722 61.4996 45.9926 49.0901 66.846L46.2007 69.4647Z" fill="#4A6BE2"/>
<path d="M237.9 125.837C237.9 125.837 243.836 129.962 245.783 139.989C248.165 152.247 247.105 172.176 231.893 185.802M33.9695 84.3244C33.9695 84.3244 13.1949 117.048 23.1701 150.594M193.061 38.139C193.061 38.139 231.351 55.3532 235.965 108.859" stroke="#040726" stroke-width="2"/>
</svg>
