<svg width="56" height="47" viewBox="0 0 56 47" fill="none" xmlns="http://www.w3.org/2000/svg">
<path d="M55.4176 6.7754C53.9985 8.66836 52.2831 10.3196 50.3378 11.6654C50.3378 12.1599 50.3378 12.6543 50.3378 13.1763C50.3533 22.1562 46.7664 30.7668 40.3811 37.0777C33.9957 43.3886 25.3461 46.8719 16.3714 46.7467C11.1828 46.7641 6.06077 45.5793 1.40638 43.2853C1.15541 43.1757 0.993542 42.9274 0.994495 42.6535V42.3513C0.994495 41.9568 1.31413 41.637 1.70842 41.637C6.80861 41.4689 11.7268 39.7006 15.7673 36.5822C11.1509 36.4893 6.99734 33.7545 5.08584 29.5494C4.98929 29.3198 5.01935 29.0563 5.16517 28.8543C5.31098 28.6524 5.55148 28.541 5.79977 28.5605C7.20278 28.7015 8.61982 28.5709 9.97348 28.1759C4.87739 27.118 1.04825 22.8873 0.500239 17.7091C0.480762 17.4607 0.592081 17.2201 0.793981 17.0742C0.995882 16.9284 1.25918 16.8983 1.48875 16.9949C2.85632 17.5983 4.33261 17.9162 5.82722 17.9289C1.36184 14.9981 -0.566911 9.42348 1.13179 4.35789C1.30714 3.86566 1.7284 3.50204 2.24078 3.40064C2.75317 3.29924 3.28108 3.47503 3.63053 3.8634C9.65629 10.2766 17.9358 14.0982 26.7233 14.5224C26.4982 13.6242 26.3875 12.7012 26.3938 11.7753C26.476 6.91998 29.4801 2.59481 33.9998 0.824616C38.5195 -0.945576 43.6602 0.18955 47.0153 3.69857C49.3023 3.26289 51.5132 2.4947 53.5779 1.41842C53.7291 1.324 53.9209 1.324 54.0721 1.41842C54.1665 1.56973 54.1665 1.7616 54.0721 1.91291C53.0721 4.20296 51.3826 6.12369 49.2394 7.40725C51.1162 7.18961 52.96 6.74688 54.7311 6.08861C54.8803 5.9871 55.0763 5.9871 55.2254 6.08861C55.3503 6.14577 55.4437 6.25506 55.4808 6.38739C55.5178 6.51973 55.4947 6.66166 55.4176 6.7754Z" fill="white"/>
</svg>
